<svg xmlns="http://www.w3.org/2000/svg"  viewBox="0 0 512 512" width="192px" height="192px"><path fill="#71C598" d="M166.1,75c-4.2-0.1-8.3-0.2-12.5,0c0.7,29.1,5.4,59.3-2,87.8c1.9,0.3,3.7,0.7,5.5,1.3c2,0.6,3.6,1.4,5,2.4c1.7-4.8,1.8-10.5,1.9-15.3c0.2-7.2,0-14.5,0.2-21.7c0.3-9.4,2.1-18.6,2.2-28C166.5,92.6,166.2,83.8,166.1,75z"/><path fill="#FCBF95" d="M312.5,177.2c-23.1-15.5-53.1-20.5-79.7-11.8c-25,8.1-47.1,26.4-48.5,54.2c-0.1,2.1-1.1,3.5-2.5,4.2c-3.2,31.2,5,67.6,33.4,85c32.2,19.7,74.7,21.9,108.5,4.7C379.7,284.9,355.3,205.9,312.5,177.2z M316.3,290.9c-15.4,12.3-36,17.2-55.5,16.6c-18.7-0.6-41-6.5-53.1-21.9c-15.9-20.2-11.9-46.3-7-69.8c0-0.7,0.1-1.4,0.5-2.2c0-0.2,0.1-0.4,0.1-0.6c0.3-1.5,1-2.6,2-3.3c31.5-53.8,118.3-27.9,130.5,29.2C337.9,258.6,332.1,278.3,316.3,290.9z"/><path fill="#283D5B" d="M306 212c-26.3-25-75.1-31.4-94.2 5.5-4.8 22.8-10.3 52.3 11.8 67.6 16.3 11.3 38.5 13.4 57.5 9.5 17.2-3.6 35.6-13.2 41.1-31.2C327.8 245.3 319.2 224.5 306 212zM293 255.3c0 1.7-.6 3.6-2.2 4.5-13.9 7.8-33.5 14.1-48.3 4.9-4.7-2.9-7.3-7.7-8.1-13.1-.5-3.3.3-9-2.1-11.7-3-3.3-.7-7.9 2.4-8.9 6-12.9 24.8-17.7 37.7-15.1 7.9 1.6 15.4 5.9 18.8 13.5C294.7 237.8 293.1 246.7 293 255.3zM406.9 101.2c-8.2-3.2-17.4-2.7-26-2.5-5.6.1-16.9-2.1-21.2 2.8-3.6 4.2-2.6 11.8-2.4 16.9.1 4.4.4 8.9 0 13.3-.4 4-2 9.2.4 12.8.5.1 1 .2 1.5.4 6.2 2.6 12.5 3.8 19.3 3.2 5.4-.5 10.2-.7 15.6-.1 7.7.8 18.9 3.3 22.6-5.5C421.8 130.3 421.2 106.8 406.9 101.2z"/><path fill="#283D5B" d="M282.6,235.3c-2.1-5.9-7.3-8.9-13.3-9.7c-9.1-1.2-22.7,1.6-26.3,11.3c-0.2,0.5-0.4,0.9-0.6,1.2c0.7,1.8,1.1,3.8,1.3,5.9c0.3,3.5-0.1,7.9,2.3,10.8c3.9,4.7,13.1,4.8,18.5,4.1c6.6-0.9,12.8-3.2,18.7-6.2C283.6,246.9,284.5,240.6,282.6,235.3z"/><path fill="#C56528" d="M446.1,117.8C436.5,98,417.8,84.5,397,78.3c-24.4-7.3-48.8-5.4-73.8-3.1c-31.3,2.9-62.8,6.6-94.3,5.1c-11.7-0.5-23.3-1.9-35-3.2c0,18.9-0.6,37.8-1.5,56.6c-0.5,10.5-0.9,21-2.1,31.4c-0.3,2.5-0.5,6.1-1.4,9h2.7c0.8,0,1.5,0.2,2.1,0.4c21.1-19.6,54.4-28.2,82.2-23.6c18.4,3,35.4,11,49.6,22.3c0.7-0.4,1.5-0.6,2.5-0.6c24.7,0,49.5,0.5,74.2,0.6c12.4,0.1,24.7,0.1,37.1-0.2c3.3-0.1,6.6-0.1,9.8-0.2c2.2-0.1,4.8-0.4,7.2-0.4C456.5,153.7,454.3,134.6,446.1,117.8z M422,152.6c-7.7,7.9-19.8,6-29.8,5c-6.4-0.6-12.6,0.6-19,0.4c-6.4-0.2-12.4-1.9-18.4-4.4c-0.9-0.4-1.5-0.8-1.9-1.4c-1.1-0.2-2.1-0.8-3-1.8c-6.1-7.2-2.2-18.4-2.4-26.8c-0.2-7.8-1.4-16.9,1.8-24.3c3.2-7.4,10.9-10.4,18.5-10.7c9.9-0.5,20.3-0.7,30.2,0.3c9.2,0.9,19.1,3.9,24.6,12c5,7.3,6.8,16.9,6.7,25.7C429.2,135.2,428.3,146.1,422,152.6z"/><path fill="#4B7BB2" d="M176.1,75.5c0.2,9.7,0.5,19.3,0.1,29c-0.4,8.9-2.1,17.6-2.2,26.5c-0.1,8.2,0.1,16.4-0.4,24.6c-0.4,6.1-0.8,13-4.1,18.4c-0.1,0.1-0.1,0.2-0.2,0.3h9c0.1-0.9,0.5-1.8,1-2.6c0-0.1,0-0.2,0.1-0.3c0.3-1.2,0.5-2.4,0.7-3.7c0.5-3.5,0.8-6.9,1.1-10.4c0.8-10,1.3-20.1,1.7-30.1c0.6-16.5,1.1-33,1.2-49.5c0-0.5,0.1-1,0.2-1.4C181.5,75.9,178.8,75.7,176.1,75.5z"/><path fill="#C56528" d="M94.9,133.9c-1-12.7-3.1-25.5-3.7-38.2c-5.6,4.2-10.8,8.8-15.7,13.7c0,0.2,0,0.3,0,0.5c0,23,1,45.9,1.9,68.9c0.1,0,0.1,0,0.2,0h15c0.2,0,0.5,0,0.7,0.1c-1.3-2.4-0.7-5.7,1.9-7c0-0.1,0-0.3,0.1-0.5c0.1-0.5,0.2-1,0.3-1.5c0.5-3.1,0.6-6.2,0.6-9.3C96.2,151.6,95.6,142.7,94.9,133.9z"/><path fill="#D6E5E5" d="M158.1,177.3c-1.3-3.4-4.4-4.1-7.7-4.6c-7.2-1.1-14.4-0.5-21.6-0.5c-5.8,0-13.4,0.9-18.3,4.2c-4.1,2.7-5.8,6.7-6.3,11.3c0.9,0.1,1.8,0.5,2.6,1.3c6.5,6,19.2,4.3,27.1,3.2c8.4-1.1,16.9-2.9,24.8-5.9C159,183.2,159.2,179.9,158.1,177.3z"/><path fill="#FCBF95" d="M452.4,285.9c-2.7-27.6,0-54.6,2.3-82.1c0.6-6.7,1.1-13.5,1.4-20.5c-0.1-0.1-0.3-0.2-0.4-0.3c0,0,0,0-0.1-0.1c-0.4,0.1-0.9,0.1-1.7-0.1l-2,0.1c-1.3,0-2.6,0.1-3.9,0.1c-2.6,0.1-5.2,0.1-7.9,0.2c-5.2,0.1-10.4,0.2-15.6,0.2c-10.4,0.1-20.8,0-31.1-0.1c-19.1-0.2-38.3-0.5-57.5-0.5c17.9,18.4,29.7,42.9,31.6,69.2c1.9,26.3-7.9,52-30.6,66.8c-24.2,15.8-56,21-84.4,15.8c-26-4.8-53.2-17-67.4-40.3c-13.4-21.9-17.3-48-14.4-73.2c0.2-1.9,1.2-3.2,2.4-4c0.8-12.6,5.3-23.6,12.1-32.9h-15.4c-0.5,0-1-0.1-1.4-0.2c0,1.8,0,3.5,0,5.3c0,2.4-1.1,4.1-3.3,5.1c-10.6,4.6-22.8,7.2-34.3,8.1c-10,0.8-22.8,1.2-30.7-6.1c-0.2-0.2-0.4-0.4-0.5-0.6c-2.7,0.6-5.7-0.8-5.7-4.3c0-1,0.1-2,0.1-3c-0.2,0-0.5,0.1-0.8,0.1h-15c-0.2,0-0.4,0-0.6,0c0.4,10.6,0.7,21.2,0.9,31.9c0.2,15.3,0.4,30.7-0.8,46c-1.1,14.4-3.1,28.8-4.8,43.2c-3.3,27.8-7.1,59.4,3.6,86.2c16.9,42.5,69.5,44.9,108.4,42c31.7-2.3,63.4-6.9,95.3-7.1c26.1-0.2,51.9,4.4,78,4.7c22.5,0.3,46.9-2,66.2-14.8c20.8-13.8,30.4-36.2,32.4-60.5C459,335.4,454.8,310.6,452.4,285.9z"/><path fill="#EF4823" d="M108.5,84.9c-2.5,1.3-5,2.6-7.4,4.1c0.2,16.8,3.2,33.7,4.3,50.4c0.6,9.3,1.2,18.8,0.5,28.1c3.7-2.1,7.9-3.5,12.2-4.3V80.9C114.8,82.1,111.6,83.4,108.5,84.9z"/><path fill="#FEBF10" d="M143.6,75.6c-5.2,0.5-10.5,1.3-15.6,2.5v84.2c0,0,0,0,0,0c4.1-0.1,8.4-0.3,12.6-0.3c0.2-1.1,0.7-1.9,1.4-2.6C148.8,132.2,144.3,103.4,143.6,75.6z"/><path d="M333.7 239c-12.2-57.1-99-83-130.5-29.2-1 .8-1.7 1.9-2 3.3 0 .2-.1.4-.1.6-.3.8-.5 1.5-.5 2.2-4.9 23.5-8.9 49.5 7 69.8 12.1 15.4 34.5 21.3 53.1 21.9 19.5.6 40.1-4.3 55.5-16.6C332.1 278.3 337.9 258.6 333.7 239zM322.3 263.4c-5.5 17.9-23.9 27.6-41.1 31.2-19.1 3.9-41.2 1.8-57.5-9.5-22-15.3-16.6-44.9-11.8-67.6 19.1-36.9 67.9-30.5 94.2-5.5C319.2 224.5 327.8 245.3 322.3 263.4zM422.5 101c-5.4-8-15.4-11-24.6-12-9.8-1-20.3-.8-30.2-.3-7.6.3-15.3 3.3-18.5 10.7-3.2 7.4-2 16.4-1.8 24.3.2 8.5-3.7 19.7 2.4 26.8.9 1 1.9 1.6 3 1.8.5.6 1.1 1 1.9 1.4 5.9 2.4 11.9 4.2 18.4 4.4 6.4.2 12.6-1 19-.4 10 1 22 2.9 29.8-5 6.3-6.5 7.3-17.4 7.3-25.9C429.3 118 427.5 108.4 422.5 101zM416.7 142.3c-3.7 8.8-14.9 6.3-22.6 5.5-5.4-.5-10.2-.3-15.6.1-6.7.6-13-.7-19.3-3.2-.5-.2-1-.3-1.5-.4-2.4-3.6-.8-8.8-.4-12.8.4-4.4.1-8.9 0-13.3-.1-5.1-1.2-12.7 2.4-16.9 4.3-4.9 15.5-2.7 21.2-2.8 8.6-.2 17.9-.7 26 2.5C421.2 106.8 421.8 130.3 416.7 142.3z"/><path d="M467,331.1c-1.5-24.6-6.2-49-6.1-73.7c0.1-29.7,5.7-59.1,5.3-88.9c-0.3-25.7-5.5-52.8-22.9-72.6c-14.4-16.4-34.8-25.8-55.9-30.2c-25.8-5.3-52.3-1.6-78.2,0.9c-31.7,3-63.4,5.8-95.2,2.8c-12.8-1.2-25.7-2.8-38.5-3.7c-1.5-2.9-5.9-2.9-8.2-0.5c-5.6-0.2-11.2-0.3-16.9,0c-1.1-0.3-2.5-0.3-3.6,0.2c-3.5,0.2-7,0.6-10.4,1c-27.5,3.8-50.3,18.3-69.6,37.6c-1.6,1.6-1.7,3.5-1,5c-0.2,0.5-0.3,1.1-0.3,1.7c0,32.4,2,64.7,2.9,97.1c0.5,16.1,0.6,32.3,0.1,48.4c-0.4,14.4-2.4,28.7-4.2,42.9c-3.6,28.5-7.3,58-1.1,86.4c4.8,21.9,16.8,39.5,36.6,50.3c18.3,10,40.1,12.6,60.6,13c28.2,0.5,56.5-3.9,84.6-6.2c15.8-1.3,31.7-2.1,47.5-1.7c13.4,0.3,26.7,2,40,3.2c23.1,2,46.5,2.6,69.2-2.9c22.6-5.5,42.4-19.1,53.9-39.5C467.6,380.4,468.4,354.7,467,331.1z M190.5,165.2c1.2-10.4,1.6-20.9,2.1-31.4c0.8-18.9,1.4-37.8,1.5-56.6c11.7,1.2,23.3,2.6,35,3.2c31.5,1.5,63-2.2,94.3-5.1c25-2.3,49.4-4.2,73.8,3.1c20.8,6.2,39.5,19.7,49.1,39.5c8.2,16.8,10.4,35.9,10.3,54.8c-2.4-0.1-4.9,0.3-7.2,0.4c-3.3,0.1-6.5,0.2-9.8,0.2c-12.4,0.2-24.7,0.2-37.1,0.2c-24.7-0.1-49.5-0.6-74.2-0.6c-1,0-1.8,0.2-2.5,0.6C311.5,162,294.5,154,276.1,151c-27.8-4.5-61.2,4-82.2,23.6c-0.6-0.3-1.3-0.4-2.1-0.4H189C190,171.3,190.2,167.8,190.5,165.2z M323.7,313.5c-33.8,17.2-76.2,15-108.5-4.7c-28.4-17.4-36.6-53.9-33.4-85c1.4-0.7,2.4-2.1,2.5-4.2c1.4-27.9,23.5-46.1,48.5-54.2c26.7-8.7,56.6-3.7,79.7,11.8C355.3,205.9,379.7,284.9,323.7,313.5z M169.5,174c3.3-5.4,3.8-12.2,4.1-18.4c0.5-8.2,0.3-16.4,0.4-24.6c0.1-8.9,1.8-17.6,2.2-26.5c0.4-9.7,0.1-19.3-0.1-29c2.7,0.2,5.4,0.4,8.1,0.7c-0.1,0.4-0.2,0.9-0.2,1.4c0,16.5-0.5,33-1.2,49.5c-0.4,10-0.8,20.1-1.7,30.1c-0.3,3.5-0.6,7-1.1,10.4c-0.2,1.2-0.4,2.5-0.7,3.7c0,0.1-0.1,0.2-0.1,0.3c-0.6,0.8-0.9,1.7-1,2.6h-9C169.4,174.1,169.4,174.1,169.5,174z M153.6,74.9c4.2-0.1,8.3-0.1,12.5,0c0.1,8.8,0.4,17.6,0.3,26.4c-0.2,9.4-2,18.6-2.2,28c-0.2,7.2,0,14.5-0.2,21.7c-0.1,4.8-0.2,10.5-1.9,15.3c-1.4-1-3-1.8-5-2.4c-1.8-0.6-3.6-1-5.5-1.3C159,134.3,154.3,104,153.6,74.9z M150.4,172.7c3.3,0.5,6.4,1.2,7.7,4.6c1,2.6,0.8,5.9,0.6,9c-8,3-16.4,4.8-24.8,5.9c-7.9,1-20.6,2.8-27.1-3.2c-0.8-0.8-1.7-1.2-2.6-1.3c0.5-4.5,2.2-8.6,6.3-11.3c5-3.3,12.5-4.2,18.3-4.2C136,172.2,143.2,171.6,150.4,172.7z M128,78.1c5.1-1.2,10.4-2,15.6-2.5c0.7,27.8,5.2,56.6-1.5,83.8c-0.7,0.6-1.2,1.5-1.4,2.6c-4.2,0-8.5,0.2-12.6,0.3c0,0,0,0,0,0V78.1z M108.5,84.9c3.1-1.5,6.3-2.9,9.6-4v82.3c-4.3,0.8-8.5,2.2-12.2,4.3c0.7-9.3,0.1-18.8-0.5-28.1c-1.1-16.7-4.2-33.6-4.3-50.4C103.4,87.6,105.9,86.2,108.5,84.9z M91.2,95.7c0.6,12.7,2.7,25.5,3.7,38.2c0.7,8.8,1.3,17.7,1.3,26.6c0,3.1-0.1,6.2-0.6,9.3c-0.1,0.5-0.2,1-0.3,1.5c0,0.2-0.1,0.4-0.1,0.5c-2.6,1.3-3.1,4.7-1.9,7c-0.2,0-0.5-0.1-0.7-0.1h-15c-0.1,0-0.1,0-0.2,0c-0.9-23-1.9-45.9-1.9-68.9c0-0.2,0-0.3,0-0.5C80.4,104.5,85.7,99.9,91.2,95.7z M457,360.3c-2,24.4-11.6,46.7-32.4,60.5c-19.3,12.8-43.7,15-66.2,14.8c-26.1-0.3-51.9-4.9-78-4.7c-31.9,0.2-63.5,4.8-95.3,7.1c-39,2.9-91.5,0.5-108.4-42c-10.6-26.8-6.9-58.3-3.6-86.2c1.7-14.4,3.7-28.7,4.8-43.2c1.2-15.3,1-30.7,0.8-46c-0.2-10.6-0.5-21.3-0.9-31.9c0.2,0,0.4,0,0.6,0h15c0.3,0,0.5,0,0.8-0.1c-0.1,1-0.1,2-0.1,3c-0.1,3.5,2.9,4.9,5.7,4.3c0.2,0.2,0.3,0.4,0.5,0.6c7.9,7.3,20.7,7,30.7,6.1c11.5-1,23.6-3.5,34.3-8.1c2.2-1,3.3-2.7,3.3-5.1c0-1.8,0-3.5,0-5.3c0.4,0.1,0.9,0.2,1.4,0.2h15.4c-6.9,9.2-11.3,20.2-12.1,32.9c-1.3,0.7-2.2,2-2.4,4c-2.8,25.2,1,51.3,14.4,73.2c14.3,23.3,41.4,35.6,67.4,40.3c28.3,5.2,60.1,0,84.4-15.8c22.7-14.8,32.5-40.5,30.6-66.8c-1.9-26.3-13.7-50.8-31.6-69.2c19.2,0.1,38.3,0.4,57.5,0.5c10.4,0.1,20.8,0.1,31.1,0.1c5.2,0,10.4-0.1,15.6-0.2c2.6,0,5.2-0.1,7.9-0.2c1.3,0,2.6-0.1,3.9-0.1l2-0.1c0.8,0.2,1.3,0.2,1.7,0.1c0,0,0,0,0.1,0.1c0.1,0.1,0.3,0.2,0.4,0.3c-0.3,6.9-0.8,13.8-1.4,20.5c-2.3,27.5-5,54.5-2.3,82.1C454.8,310.6,459,335.4,457,360.3z"/><path d="M291.1,229.5c-3.4-7.6-10.9-11.9-18.8-13.5c-12.9-2.6-31.7,2.2-37.7,15.1c-3.1,0.9-5.4,5.6-2.4,8.9c2.5,2.7,1.7,8.3,2.1,11.7c0.8,5.4,3.4,10.2,8.1,13.1c14.9,9.2,34.4,2.9,48.3-4.9c1.6-0.9,2.2-2.8,2.2-4.5C293.1,246.7,294.7,237.8,291.1,229.5z M283.2,252.7c-5.9,3.1-12.1,5.3-18.7,6.2c-5.4,0.8-14.6,0.6-18.5-4.1c-2.4-2.8-2-7.3-2.3-10.8c-0.2-2.1-0.6-4.1-1.3-5.9c0.2-0.3,0.5-0.7,0.6-1.2c3.6-9.7,17.1-12.5,26.3-11.3c6,0.8,11.2,3.8,13.3,9.7C284.5,240.6,283.6,246.9,283.2,252.7z"/><g><path fill="#D6E5E5" d="M247.9,203c-9.5-2.9-19.3,2-20.9,12.2c-1.7,10.9,7,18.4,17.3,18.7c3.8,0.1,5-3.3,4.2-6.1c2.2-0.6,3.4-3.1,3.4-5.2v-15C252,205.1,249.9,203.6,247.9,203z M242,215.5c-2.2,1.2-3.3,4-2.8,6.2c0,0.2,0,0.5,0,0.7c-1.6-1.2-2.6-3.1-2.3-5.3c0.3-3.4,2.4-4.8,5.1-4.9V215.5z"/></g></svg>